<?xml version="1.0" encoding="UTF-8" standalone="no"?>
<!-- Auto-generated simple dependency graph (manual SVG) -->
<svg xmlns="http://www.w3.org/2000/svg" width="720" height="380" viewBox="0 0 720 380" font-family="Arial, Helvetica, sans-serif">
  <style>
    .node { fill:#f5f8fa; stroke:#2c3e50; stroke-width:1.2; }
    .root { fill:#e8f7ff; }
    .edge { stroke:#34495e; stroke-width:1.2; marker-end:url(#arrow); }
    .title { font-size:18px; font-weight:600; }
    .label { font-size:13px; font-weight:500; }
  </style>
  <defs>
    <marker id="arrow" viewBox="0 0 10 10" refX="9" refY="5" markerUnits="strokeWidth" markerWidth="8" markerHeight="8" orient="auto">
      <path d="M 0 0 L 10 5 L 0 10 z" fill="#34495e" />
    </marker>
  </defs>
  <text x="20" y="28" class="title">Terraform Root Module Dependencies (dev)</text>
  <!-- Nodes -->
  <g id="infra">
    <rect class="node root" x="300" y="60" rx="6" ry="6" width="120" height="44" />
    <text x="360" y="87" text-anchor="middle" class="label">infra</text>
  </g>
  <g id="k8s">
    <rect class="node" x="120" y="160" rx="6" ry="6" width="120" height="44" />
    <text x="180" y="187" text-anchor="middle" class="label">k8s</text>
  </g>
  <g id="secrets">
    <rect class="node" x="300" y="160" rx="6" ry="6" width="120" height="44" />
    <text x="360" y="187" text-anchor="middle" class="label">secrets</text>
  </g>
  <g id="cicd">
    <rect class="node" x="120" y="260" rx="6" ry="6" width="120" height="44" />
    <text x="180" y="287" text-anchor="middle" class="label">cicd</text>
  </g>
  <g id="db">
    <rect class="node" x="480" y="260" rx="6" ry="6" width="120" height="44" />
    <text x="540" y="287" text-anchor="middle" class="label">db</text>
  </g>
  <!-- Edges from infra -->
  <line class="edge" x1="360" y1="104" x2="180" y2="160" />
  <line class="edge" x1="360" y1="104" x2="360" y2="160" />
  <line class="edge" x1="360" y1="104" x2="540" y2="260" />
  <line class="edge" x1="360" y1="104" x2="180" y2="260" />
  <!-- Edges from k8s -->
  <line class="edge" x1="240" y1="182" x2="300" y2="182" />
  <line class="edge" x1="180" y1="204" x2="180" y2="260" />
  <!-- Edge secrets -> db -->
  <line class="edge" x1="420" y1="182" x2="540" y2="260" />
  <!-- Legend -->
  <g>
    <rect x="520" y="60" width="170" height="88" fill="#ffffff" stroke="#95a5a6" rx="6" ry="6" />
    <text x="605" y="80" text-anchor="middle" class="label" font-weight="600">Legend</text>
    <rect x="532" y="92" width="18" height="14" class="node root" />
    <text x="556" y="103" font-size="11"> Root foundation</text>
    <rect x="532" y="112" width="18" height="14" class="node" />
    <text x="556" y="123" font-size="11"> Dependent stack</text>
  </g>
  <!-- Apply order note -->
  <text x="20" y="350" font-size="12" fill="#2c3e50">Suggested apply order: infra → k8s → secrets → db / cicd</text>
</svg>

